<svg width="20" height="18" viewBox="0 0 20 18" fill="none" xmlns="http://www.w3.org/2000/svg">
<path id="Vector" d="M4.88989 2.00002C4.88963 2.53046 4.67866 3.03906 4.3034 3.41394C3.92814 3.78883 3.41933 3.99929 2.88889 3.99902C2.35846 3.99876 1.84986 3.78779 1.47497 3.41253C1.10009 3.03727 0.889628 2.52846 0.889893 1.99802C0.890158 1.46759 1.10113 0.958988 1.47639 0.584103C1.85165 0.209218 2.36046 -0.00124153 2.89089 -0.000976312C3.42133 -0.000711096 3.92993 0.210257 4.30481 0.585517C4.6797 0.960777 4.89016 1.46959 4.88989 2.00002ZM4.94989 5.48002H0.949893V18H4.94989V5.48002ZM11.2699 5.48002H7.28989V18H11.2299V11.43C11.2299 7.77002 15.9999 7.43002 15.9999 11.43V18H19.9499V10.07C19.9499 3.90002 12.8899 4.13002 11.2299 7.16002L11.2699 5.48002Z" fill="white"/>
</svg>
