<svg width="20" height="17" viewBox="0 0 20 17" fill="none" xmlns="http://www.w3.org/2000/svg">
<path id="Vector" d="M19.5699 5.5125C19.4995 5.43018 19.4121 5.36408 19.3137 5.31877C19.2153 5.27345 19.1083 5.24999 18.9999 5.25H14.4999V2.25C14.4999 1.65326 14.2629 1.08097 13.8409 0.65901C13.419 0.237053 12.8467 0 12.2499 0H7.74995C7.15321 0 6.58091 0.237053 6.15896 0.65901C5.737 1.08097 5.49995 1.65326 5.49995 2.25V5.25H0.999948C0.891232 5.24877 0.783549 5.27119 0.684359 5.31571C0.585168 5.36022 0.496842 5.42578 0.425501 5.50782C0.35416 5.58986 0.301508 5.68643 0.271195 5.79084C0.240883 5.89526 0.233633 6.00501 0.249948 6.1125L1.65995 15.225C1.71419 15.5827 1.89587 15.9087 2.17152 16.143C2.44717 16.3773 2.7982 16.5041 3.15995 16.5H16.8549C17.2167 16.5041 17.5677 16.3773 17.8434 16.143C18.119 15.9087 18.3007 15.5827 18.3549 15.225L19.7499 6.1125C19.765 6.00543 19.7567 5.89637 19.7256 5.79281C19.6945 5.68925 19.6414 5.59363 19.5699 5.5125ZM6.99995 2.25C6.99995 2.05109 7.07897 1.86032 7.21962 1.71967C7.36027 1.57902 7.55104 1.5 7.74995 1.5H12.2499C12.4489 1.5 12.6396 1.57902 12.7803 1.71967C12.9209 1.86032 12.9999 2.05109 12.9999 2.25V5.25H6.99995V2.25ZM16.8549 15H3.14495L1.87745 6.75H18.1224L16.8549 15Z" fill="white"/>
</svg>
