<svg width="27" height="27" viewBox="0 0 27 27" fill="none" xmlns="http://www.w3.org/2000/svg">
<path id="Vector" d="M13.3333 0C5.98133 0 0 5.98133 0 13.3333V18.8573C0 20.2227 1.196 21.3333 2.66667 21.3333H4C4.35362 21.3333 4.69276 21.1929 4.94281 20.9428C5.19286 20.6928 5.33333 20.3536 5.33333 20V13.1427C5.33333 12.789 5.19286 12.4499 4.94281 12.1999C4.69276 11.9498 4.35362 11.8093 4 11.8093H2.78933C3.53067 6.64933 7.97067 2.66667 13.3333 2.66667C18.696 2.66667 23.136 6.64933 23.8773 11.8093H22.6667C22.313 11.8093 21.9739 11.9498 21.7239 12.1999C21.4738 12.4499 21.3333 12.789 21.3333 13.1427V21.3333C21.3333 22.804 20.1373 24 18.6667 24H16V22.6667H10.6667V26.6667H18.6667C21.608 26.6667 24 24.2747 24 21.3333C25.4707 21.3333 26.6667 20.2227 26.6667 18.8573V13.3333C26.6667 5.98133 20.6853 0 13.3333 0Z" fill="white"/>
</svg>
